<svg width="95" height="48" viewBox="0 0 95 48" fill="none" xmlns="http://www.w3.org/2000/svg">
<path d="M2.64 46.992C1.936 47.024 1.392 46.896 1.008 46.608C0.592 46.32 0.448 45.776 0.576 44.976C0.576 44.88 0.608 44.736 0.672 44.544C0.736 44.352 0.816 44.224 0.912 44.16C0.88 44.96 0.976 45.52 1.2 45.84C1.424 46.16 1.792 46.32 2.304 46.32C3.552 46.32 4.832 45.92 6.144 45.12C7.488 44.32 8.816 43.248 10.128 41.904C9.808 41.808 9.392 41.616 8.88 41.328C8.4 41.072 8.032 40.864 7.776 40.704C6.496 39.776 5.856 38.704 5.856 37.488C5.856 36.56 6.272 35.552 7.104 34.464C7.936 33.376 9.296 32.272 11.184 31.152C12.4 30.416 13.808 29.76 15.408 29.184C17.008 28.608 18.496 28.144 19.872 27.792C20.352 26.864 20.816 25.952 21.264 25.056C21.712 24.16 22.144 23.264 22.56 22.368C22.72 22.016 23.008 21.344 23.424 20.352C23.84 19.36 24.304 18.192 24.816 16.848C25.328 15.504 25.808 14.08 26.256 12.576C26.736 11.04 27.136 9.552 27.456 8.112C27.776 6.672 27.936 5.392 27.936 4.272C27.936 3.184 27.744 2.336 27.36 1.728C27.008 1.12 26.368 0.815998 25.44 0.815998H25.392C25.136 0.815998 25.008 0.735998 25.008 0.575998C25.008 0.415998 25.168 0.303998 25.488 0.239997C27.024 0.0799971 28.096 0.447997 28.704 1.344C29.312 2.24 29.616 3.424 29.616 4.896C29.616 5.152 29.6 5.424 29.568 5.712C29.568 6 29.552 6.304 29.52 6.624C29.712 6.784 29.84 7.056 29.904 7.44C30.096 8.464 30.288 9.808 30.48 11.472C30.704 13.136 30.96 14.96 31.248 16.944C31.536 18.928 31.872 20.944 32.256 22.992C32.672 25.008 33.152 26.912 33.696 28.704C34.272 30.464 34.944 31.952 35.712 33.168C35.872 33.424 36.096 33.76 36.384 34.176C36.672 34.56 37.024 34.912 37.44 35.232C37.856 35.552 38.32 35.712 38.832 35.712C39.376 35.712 39.936 35.488 40.512 35.04C41.024 34.624 41.504 34.048 41.952 33.312C42.4 32.576 42.816 31.792 43.2 30.96C43.392 30.608 43.568 30.432 43.728 30.432C43.888 30.432 44 30.528 44.064 30.72C44.16 30.88 44.192 31.04 44.16 31.2C44.032 31.616 43.76 32.112 43.344 32.688C42.96 33.232 42.56 33.744 42.144 34.224C41.728 34.672 41.392 34.992 41.136 35.184C40.56 35.632 40 35.952 39.456 36.144C38.944 36.368 38.464 36.48 38.016 36.48C36.96 36.48 36.032 36.08 35.232 35.28C34.464 34.448 33.792 33.584 33.216 32.688C32.416 31.408 31.776 29.792 31.296 27.84C30.848 25.888 30.496 23.776 30.24 21.504C29.984 19.232 29.776 16.992 29.616 14.784C29.488 12.576 29.344 10.56 29.184 8.736C28.8 10.528 28.272 12.368 27.6 14.256C26.928 16.144 26.24 17.888 25.536 19.488C24.864 21.056 24.304 22.272 23.856 23.136C23.152 24.576 22.384 26.016 21.552 27.456C23.024 27.104 24.56 26.784 26.16 26.496C27.76 26.208 29.168 25.936 30.384 25.68H30.528C30.656 25.68 30.72 25.728 30.72 25.824C30.72 25.92 30.64 26.048 30.48 26.208C30.32 26.368 30.112 26.48 29.856 26.544C28.48 26.8 26.992 27.104 25.392 27.456C23.792 27.776 22.288 28.128 20.88 28.512C19.408 31.04 17.92 33.44 16.416 35.712C14.912 37.984 13.264 40 11.472 41.76C12.688 42.144 14.24 42.336 16.128 42.336H16.224C16.48 42.336 16.608 42.4 16.608 42.528C16.608 42.72 16.416 42.816 16.032 42.816C15.136 42.848 14.256 42.8 13.392 42.672C12.528 42.576 11.728 42.416 10.992 42.192C9.584 43.568 8.16 44.672 6.72 45.504C5.312 46.368 3.952 46.864 2.64 46.992ZM10.608 41.424C12.144 39.824 13.632 37.952 15.072 35.808C16.544 33.664 17.92 31.424 19.2 29.088C18.784 29.216 18.352 29.36 17.904 29.52C17.456 29.68 17.024 29.872 16.608 30.096C16.064 30.352 15.328 30.72 14.4 31.2C13.472 31.68 12.544 32.192 11.616 32.736C10.72 33.248 10.032 33.712 9.552 34.128C8.912 34.704 8.448 35.264 8.16 35.808C7.872 36.352 7.728 36.88 7.728 37.392C7.728 37.84 7.808 38.272 7.968 38.688C8.16 39.104 8.384 39.504 8.64 39.888C8.8 40.08 9.088 40.336 9.504 40.656C9.952 41.008 10.32 41.264 10.608 41.424ZM49.8195 38.4C48.7955 38.4 48.0115 37.92 47.4675 36.96C46.9235 36.032 46.6515 35.008 46.6515 33.888C46.6515 32.832 46.8275 31.728 47.1795 30.576C47.5315 29.424 47.9635 28.288 48.4755 27.168C49.0195 26.048 49.5795 25.024 50.1555 24.096C49.5795 24.32 49.0355 24.432 48.5235 24.432C48.2675 24.432 48.0435 24.4 47.8515 24.336C47.6595 24.272 47.4995 24.224 47.3715 24.192C47.2115 24.576 46.9235 25.216 46.5075 26.112C46.1235 27.008 45.7075 27.952 45.2595 28.944C44.8435 29.904 44.4755 30.72 44.1555 31.392C43.6435 32.48 43.1955 33.024 42.8115 33.024C42.6195 33.024 42.5235 32.896 42.5235 32.64C42.5235 32.448 42.6035 32.192 42.7635 31.872C43.4995 30.496 44.1875 29.136 44.8275 27.792C45.4995 26.448 46.1075 25.152 46.6515 23.904C46.5875 23.744 46.5235 23.536 46.4595 23.28C46.3955 22.992 46.3635 22.688 46.3635 22.368C46.3635 22.016 46.3955 21.648 46.4595 21.264C46.5555 20.848 46.6835 20.448 46.8435 20.064C46.9395 19.84 47.1155 19.52 47.3715 19.104C47.6275 18.656 47.9155 18.256 48.2355 17.904C48.5555 17.52 48.8595 17.328 49.1475 17.328C49.6915 17.328 49.9635 17.616 49.9635 18.192C49.9635 18.736 49.7875 19.36 49.4355 20.064C49.1155 20.768 48.7795 21.424 48.4275 22.032C48.0755 22.608 47.8995 23.04 47.8995 23.328C47.8995 23.584 48.0275 23.712 48.2835 23.712C48.6355 23.712 49.0675 23.536 49.5795 23.184C50.1235 22.8 50.5555 22.448 50.8755 22.128C51.0355 21.968 51.2915 21.728 51.6435 21.408C51.9955 21.056 52.3315 20.88 52.6515 20.88C52.9715 20.88 53.1795 20.976 53.2755 21.168C53.4035 21.36 53.4675 21.584 53.4675 21.84C53.4675 22.128 53.3395 22.496 53.0835 22.944C52.8275 23.36 52.5235 23.776 52.1715 24.192C51.8515 24.608 51.5795 24.96 51.3555 25.248C50.9075 25.92 50.3955 26.768 49.8195 27.792C49.2435 28.816 48.7475 29.92 48.3315 31.104C47.9155 32.256 47.7075 33.36 47.7075 34.416C47.7075 35.12 47.8835 35.856 48.2355 36.624C48.5875 37.392 49.0675 37.776 49.6755 37.776C50.2195 37.776 50.7955 37.488 51.4035 36.912C52.0435 36.336 52.6355 35.648 53.1795 34.848C53.7555 34.048 54.2515 33.28 54.6675 32.544C55.1155 31.808 55.4195 31.296 55.5795 31.008C55.6435 30.848 55.7555 30.656 55.9155 30.432C56.0755 30.176 56.2675 30.048 56.4915 30.048C56.6835 30.048 56.7795 30.144 56.7795 30.336C56.7795 30.496 56.7315 30.688 56.6355 30.912C56.5715 31.104 56.5075 31.28 56.4435 31.44C56.1555 32.112 55.8035 32.816 55.3875 33.552C54.9715 34.288 54.6835 34.784 54.5235 35.04C54.0755 35.776 53.4035 36.512 52.5075 37.248C51.6435 38.016 50.7475 38.4 49.8195 38.4ZM59.9396 43.68C59.6196 43.68 59.2836 43.472 58.9316 43.056C58.6116 42.672 58.3076 42.128 58.0196 41.424C57.5396 40.272 57.2036 39.056 57.0116 37.776C56.8196 36.528 56.7236 35.264 56.7236 33.984C56.7236 32.576 56.8196 31.2 57.0116 29.856C57.2036 28.512 57.4116 27.296 57.6356 26.208C57.7956 25.44 57.9876 24.624 58.2116 23.76C58.4356 22.896 58.6436 22.208 58.8356 21.696C58.6436 21.728 58.3396 21.84 57.9236 22.032C57.5076 22.224 57.0756 22.416 56.6276 22.608C56.2116 22.8 55.8436 22.896 55.5236 22.896C55.0436 22.896 54.8036 22.624 54.8036 22.08C54.8036 21.792 54.8996 21.536 55.0916 21.312C55.3156 21.088 55.5876 20.912 55.9076 20.784C56.5476 20.496 57.2516 20.288 58.0196 20.16C58.7876 20 59.2996 19.84 59.5556 19.68L60.8036 16.512C60.9316 16.192 61.1556 15.68 61.4756 14.976C61.8276 14.24 62.2276 13.456 62.6756 12.624C63.1556 11.792 63.6196 11.04 64.0676 10.368C64.4196 9.856 64.7556 9.456 65.0756 9.168C65.3956 8.848 65.7476 8.688 66.1316 8.688C66.7076 8.688 66.9956 8.912 66.9956 9.36C66.9956 9.616 66.8836 10 66.6596 10.512C66.4676 11.024 66.0996 11.696 65.5556 12.528C64.9476 13.488 64.3236 14.448 63.6836 15.408C63.0756 16.336 62.5476 17.312 62.0996 18.336C62.0676 18.464 61.9876 18.672 61.8596 18.96C61.7636 19.216 61.6836 19.376 61.6196 19.44L62.5796 19.296C62.8356 19.264 63.1236 19.248 63.4436 19.248C63.7636 19.216 64.1156 19.2 64.4996 19.2C65.0436 19.2 65.5556 19.232 66.0356 19.296C66.5476 19.328 66.9636 19.408 67.2836 19.536C67.4436 19.6 67.5876 19.68 67.7156 19.776C67.8756 19.84 67.9556 19.904 67.9556 19.968C67.9556 20.096 67.5396 20.16 66.7076 20.16C66.2276 20.16 65.5396 20.24 64.6436 20.4C63.7796 20.56 62.7876 20.816 61.6676 21.168C61.1236 21.328 60.7556 21.552 60.5636 21.84C60.3716 22.128 60.1156 22.816 59.7956 23.904C59.3156 25.632 58.9316 27.296 58.6436 28.896C58.3556 30.464 58.1316 32.064 57.9716 33.696C57.9396 34.016 57.9076 34.352 57.8756 34.704C57.8756 35.056 57.8756 35.44 57.8756 35.856C57.8756 36.944 57.9716 38.08 58.1636 39.264C58.3876 40.448 58.7076 41.472 59.1236 42.336C59.2196 42.528 59.3156 42.704 59.4116 42.864C59.5396 43.024 59.6836 43.136 59.8436 43.2C60.0676 43.296 60.1796 43.408 60.1796 43.536C60.1796 43.632 60.0996 43.68 59.9396 43.68ZM68.8661 19.968C68.5781 19.968 68.3701 19.824 68.2421 19.536C68.1461 19.216 68.0981 18.992 68.0981 18.864C68.0981 18.352 68.2421 17.872 68.5301 17.424C68.8501 16.944 69.2021 16.688 69.5861 16.656H69.7301C70.1141 16.656 70.3701 16.752 70.4981 16.944C70.6581 17.104 70.7381 17.312 70.7381 17.568C70.7381 18.048 70.5301 18.576 70.1141 19.152C69.6981 19.696 69.2821 19.968 68.8661 19.968ZM66.4181 37.152C65.3301 37.152 64.5941 36.736 64.2101 35.904C63.8261 35.072 63.6341 34.112 63.6341 33.024C63.6341 31.936 63.7461 30.8 63.9701 29.616C64.2261 28.4 64.4981 27.296 64.7861 26.304C65.1061 25.312 65.3461 24.608 65.5061 24.192C65.8581 23.456 66.2101 22.832 66.5621 22.32C66.9141 21.776 67.2981 21.504 67.7141 21.504C68.0021 21.504 68.2101 21.616 68.3381 21.84C68.4981 22.032 68.5781 22.288 68.5781 22.608C68.5781 23.248 68.4021 23.904 68.0501 24.576C67.6981 25.216 67.3781 25.824 67.0901 26.4C66.4501 27.712 65.9381 28.88 65.5541 29.904C65.2021 30.928 65.0261 32.208 65.0261 33.744C65.0261 34.736 65.1221 35.456 65.3141 35.904C65.5381 36.352 65.8421 36.576 66.2261 36.576C66.7381 36.576 67.3301 36.288 68.0021 35.712C68.6741 35.104 69.3621 34.304 70.0661 33.312C70.7701 32.32 71.3941 31.248 71.9381 30.096C72.2901 29.36 72.5621 28.992 72.7541 28.992C72.8821 28.992 72.9461 29.12 72.9461 29.376C72.9461 29.728 72.8021 30.24 72.5141 30.912C72.2581 31.552 71.9381 32.208 71.5541 32.88C71.2021 33.552 70.8661 34.08 70.5461 34.464C70.0021 35.168 69.3781 35.792 68.6741 36.336C67.9701 36.88 67.2181 37.152 66.4181 37.152ZM75.9251 38.064C75.5091 38.064 75.2051 37.92 75.0131 37.632C74.8531 37.376 74.7731 37.12 74.7731 36.864C74.7731 36.352 74.9971 35.824 75.4451 35.28C75.6051 35.088 75.8291 34.832 76.1171 34.512C76.4051 34.16 76.6131 33.888 76.7411 33.696C76.3251 33.12 75.7651 32.592 75.0611 32.112C74.3571 31.632 73.6691 31.024 72.9971 30.288C72.3891 29.616 71.8771 28.8 71.4611 27.84C71.0451 26.848 70.8371 25.904 70.8371 25.008C70.8371 23.952 71.0771 22.944 71.5571 21.984C72.0371 21.024 72.6291 20.192 73.3331 19.488C74.1011 18.72 74.9491 18.112 75.8771 17.664C76.8051 17.184 77.7651 16.944 78.7571 16.944C79.4291 16.944 80.0851 17.104 80.7251 17.424C81.3651 17.744 81.6851 18.272 81.6851 19.008C81.6851 19.872 81.4931 20.304 81.1091 20.304C80.9491 20.304 80.8371 20.144 80.7731 19.824C80.7411 19.664 80.7251 19.504 80.7251 19.344C80.7251 19.152 80.7251 19.024 80.7251 18.96C80.7251 18.64 80.5811 18.368 80.2931 18.144C80.0051 17.888 79.6851 17.76 79.3331 17.76C78.5971 17.76 77.7811 18.048 76.8851 18.624C75.9891 19.2 75.2371 19.872 74.6291 20.64C74.0211 21.44 73.5251 22.352 73.1411 23.376C72.7571 24.368 72.5651 25.328 72.5651 26.256C72.5651 27.408 72.8211 28.4 73.3331 29.232C73.8451 30.064 74.4531 30.8 75.1571 31.44C75.8931 32.08 76.5491 32.704 77.1251 33.312C77.4131 32.96 77.7171 32.624 78.0371 32.304C78.3891 31.984 78.7091 31.728 78.9971 31.536C79.2531 31.376 79.4291 31.296 79.5251 31.296C79.6211 31.296 79.6691 31.344 79.6691 31.44C79.6691 31.6 79.5251 31.792 79.2371 32.016C79.1731 32.08 78.9811 32.272 78.6611 32.592C78.3731 32.88 78.0211 33.248 77.6051 33.696C77.8611 33.984 78.0691 34.288 78.2291 34.608C78.3891 34.928 78.4691 35.28 78.4691 35.664C78.4691 36.176 78.1811 36.704 77.6051 37.248C77.0291 37.792 76.4691 38.064 75.9251 38.064ZM76.4531 36.768C76.6771 36.768 76.8851 36.56 77.0771 36.144C77.3011 35.76 77.4131 35.376 77.4131 34.992C77.4131 34.8 77.3811 34.624 77.3171 34.464C77.2531 34.304 77.2051 34.208 77.1731 34.176C76.9171 34.496 76.6771 34.848 76.4531 35.232C76.2611 35.584 76.1651 35.904 76.1651 36.192C76.1651 36.576 76.2611 36.768 76.4531 36.768ZM86.6584 43.68C86.3384 43.68 86.0024 43.472 85.6504 43.056C85.3304 42.672 85.0264 42.128 84.7384 41.424C84.2584 40.272 83.9224 39.056 83.7304 37.776C83.5384 36.528 83.4424 35.264 83.4424 33.984C83.4424 32.576 83.5384 31.2 83.7304 29.856C83.9224 28.512 84.1304 27.296 84.3544 26.208C84.5144 25.44 84.7064 24.624 84.9304 23.76C85.1544 22.896 85.3624 22.208 85.5544 21.696C85.3624 21.728 85.0584 21.84 84.6424 22.032C84.2264 22.224 83.7944 22.416 83.3464 22.608C82.9304 22.8 82.5624 22.896 82.2424 22.896C81.7624 22.896 81.5224 22.624 81.5224 22.08C81.5224 21.792 81.6184 21.536 81.8104 21.312C82.0344 21.088 82.3064 20.912 82.6264 20.784C83.2664 20.496 83.9704 20.288 84.7384 20.16C85.5064 20 86.0184 19.84 86.2744 19.68L87.5224 16.512C87.6504 16.192 87.8744 15.68 88.1944 14.976C88.5464 14.24 88.9464 13.456 89.3944 12.624C89.8744 11.792 90.3384 11.04 90.7864 10.368C91.1384 9.856 91.4744 9.456 91.7944 9.168C92.1144 8.848 92.4664 8.688 92.8504 8.688C93.4264 8.688 93.7144 8.912 93.7144 9.36C93.7144 9.616 93.6024 10 93.3784 10.512C93.1864 11.024 92.8184 11.696 92.2744 12.528C91.6664 13.488 91.0424 14.448 90.4024 15.408C89.7944 16.336 89.2664 17.312 88.8184 18.336C88.7864 18.464 88.7064 18.672 88.5784 18.96C88.4824 19.216 88.4024 19.376 88.3384 19.44L89.2984 19.296C89.5544 19.264 89.8424 19.248 90.1624 19.248C90.4824 19.216 90.8344 19.2 91.2184 19.2C91.7624 19.2 92.2744 19.232 92.7544 19.296C93.2664 19.328 93.6824 19.408 94.0024 19.536C94.1624 19.6 94.3064 19.68 94.4344 19.776C94.5944 19.84 94.6744 19.904 94.6744 19.968C94.6744 20.096 94.2584 20.16 93.4264 20.16C92.9464 20.16 92.2584 20.24 91.3624 20.4C90.4984 20.56 89.5064 20.816 88.3864 21.168C87.8424 21.328 87.4744 21.552 87.2824 21.84C87.0904 22.128 86.8344 22.816 86.5144 23.904C86.0344 25.632 85.6504 27.296 85.3624 28.896C85.0744 30.464 84.8504 32.064 84.6904 33.696C84.6584 34.016 84.6264 34.352 84.5944 34.704C84.5944 35.056 84.5944 35.44 84.5944 35.856C84.5944 36.944 84.6904 38.08 84.8824 39.264C85.1064 40.448 85.4264 41.472 85.8424 42.336C85.9384 42.528 86.0344 42.704 86.1304 42.864C86.2584 43.024 86.4024 43.136 86.5624 43.2C86.7864 43.296 86.8984 43.408 86.8984 43.536C86.8984 43.632 86.8184 43.68 86.6584 43.68Z" fill="#F6822F"/>
</svg>
